<svg xmlns="http://www.w3.org/2000/svg" width="600" height="320" viewBox="0 0 600 320">
  <defs>
    <linearGradient id="bg" x1="0" y1="0" x2="1" y2="1">
      <stop offset="0" stop-color="#0f172a"/>
      <stop offset="1" stop-color="#1e3a8a"/>
    </linearGradient>
  </defs>
  <rect width="600" height="320" fill="url(#bg)"/>
  <!-- calendar A -->
  <g transform="translate(110 70)">
    <rect width="150" height="170" rx="14" fill="#f8fafc"/>
    <rect width="150" height="42" rx="14" fill="#4285f4"/>
    <rect y="28" width="150" height="14" fill="#4285f4"/>
    <g fill="#cbd5e1">
      <rect x="18" y="60" width="26" height="22" rx="4"/><rect x="62" y="60" width="26" height="22" rx="4"/><rect x="106" y="60" width="26" height="22" rx="4"/>
      <rect x="18" y="96" width="26" height="22" rx="4"/><rect x="106" y="96" width="26" height="22" rx="4"/>
      <rect x="18" y="132" width="26" height="22" rx="4"/><rect x="62" y="132" width="26" height="22" rx="4"/><rect x="106" y="132" width="26" height="22" rx="4"/>
    </g>
    <rect x="62" y="96" width="26" height="22" rx="4" fill="#34a853"/>
  </g>
  <!-- calendar B -->
  <g transform="translate(340 70)">
    <rect width="150" height="170" rx="14" fill="#f8fafc"/>
    <rect width="150" height="42" rx="14" fill="#ea4335"/>
    <rect y="28" width="150" height="14" fill="#ea4335"/>
    <g fill="#cbd5e1">
      <rect x="18" y="60" width="26" height="22" rx="4"/><rect x="62" y="60" width="26" height="22" rx="4"/><rect x="106" y="60" width="26" height="22" rx="4"/>
      <rect x="18" y="96" width="26" height="22" rx="4"/><rect x="106" y="96" width="26" height="22" rx="4"/>
      <rect x="18" y="132" width="26" height="22" rx="4"/><rect x="62" y="132" width="26" height="22" rx="4"/><rect x="106" y="132" width="26" height="22" rx="4"/>
    </g>
    <rect x="62" y="96" width="26" height="22" rx="4" fill="#fbbc04"/>
  </g>
  <!-- share arrows -->
  <g fill="none" stroke="#e2e8f0" stroke-width="6" stroke-linecap="round" stroke-linejoin="round">
    <path d="M276 135h48M310 121l14 14-14 14"/>
    <path d="M324 175h-48M290 161l-14 14 14 14"/>
  </g>
</svg>
